<svg xmlns="http://www.w3.org/2000/svg" viewBox="30 200 80 100">
  <path fill="#5ce0d2" transform="scale(2.5 2.5)" d="M32.9394 101.971L36.5888 102.372C36.0623 103.664 35.5152 104.536 34.5833 105.558L32.5901 107.071C32.5117 105.837 32.1667 102.915 32.9394 101.971Z"/>
  <path fill="#5ce0d2" transform="scale(2.5 2.5)" d="M16.7764 102.101L30.5777 102.099C30.5506 104.161 30.986 107.411 30.3368 109.304C29.9817 110.339 29.1166 111.404 28.4905 112.3L26.5486 114.385L17.3808 104.119C16.8662 103.416 16.6245 102.971 16.7764 102.101Z"/>
  <path fill="#5ce0d2" transform="scale(2.5 2.5)" d="M16.074 86.1907C20.2142 86.2592 24.3559 86.2275 28.4966 86.2393C31.4925 86.2477 34.47 86.1731 37.434 86.687L31.8065 92.6102L26.6631 98.496C24.83 96.6946 23.2043 94.7461 21.4684 92.8576C19.6005 90.8256 17.3016 88.6797 16.074 86.1907Z"/>
</svg>
